<svg xmlns="http://www.w3.org/2000/svg" width="72" height="72" viewBox="0 0 72 72" fill="none"><path d="M49.9355 28.7585C51.1613 29.2111 52.4516 29.4698 53.8064 29.4698C60 29.4051 65.0322 24.3617 65.0322 18.1544C65.0322 16.4733 64.7096 14.9215 64 13.4343C63.8064 13.0463 63.4838 12.7877 63.0967 12.7231C62.7096 12.6584 62.258 12.7877 62 13.0463L54.6451 20.4821L51.4193 17.2492L58.7742 9.94271C59.0967 9.61941 59.2258 9.23146 59.0967 8.8435C59.0322 8.45555 58.7742 8.06759 58.3871 7.93828C56.9677 7.29168 55.4193 6.96839 53.7419 6.96839C47.6129 6.90373 42.5806 11.9471 42.5806 18.1544C42.5806 19.4476 42.7742 20.6761 43.2903 21.9046L22.0645 43.1775C20.9032 42.7895 19.6129 42.5309 18.258 42.5309C12 42.5956 6.96771 47.639 6.96771 53.8463C6.96771 55.5274 7.29029 57.0792 7.99997 58.5664C8.19352 58.9543 8.5161 59.213 8.9032 59.2776C9.29029 59.3423 9.74191 59.213 9.99997 58.9543L17.3548 51.5185L20.5806 54.7515L13.2258 62.058C12.9677 62.3166 12.8387 62.7692 12.9032 63.1572C12.9677 63.5451 13.2258 63.9331 13.6129 64.0624C15.0322 64.709 16.5806 65.0323 18.258 65.0323C24.4516 65.0323 29.4838 59.9889 29.4838 53.7816C29.4838 52.4238 29.2258 51.1306 28.7742 49.9021L49.9355 28.7585ZM18.1935 62.5752C17.5484 62.5752 16.9677 62.5106 16.3871 62.3813L23.2258 55.5274C23.4838 55.2688 23.6129 54.9455 23.6129 54.6222C23.6129 54.2989 23.4838 53.9756 23.2258 53.7169L18.258 48.7382C17.7419 48.2209 16.9677 48.2209 16.5161 48.7382L9.67739 55.7214C9.54836 55.1394 9.48384 54.4928 9.48384 53.8463C9.48384 48.9968 13.4193 45.1173 18.1935 45.1173C19.5484 45.1173 20.7096 45.3759 21.8064 45.8285C22.258 46.0225 22.8387 45.9578 23.2258 45.5699L45.6129 23.1332C46 22.7452 46.0645 22.2279 45.8709 21.7107C45.2903 20.4821 45.0322 19.3829 45.0322 18.1544C45.0322 13.305 48.9677 9.42544 53.7419 9.42544C54.3871 9.42544 54.9677 9.49009 55.5484 9.61941L48.7742 16.4086C48.258 16.9259 48.258 17.7018 48.7742 18.1544L53.7419 23.1332C54 23.3918 54.3226 23.5211 54.6451 23.5211C54.9677 23.5211 55.2903 23.3918 55.5484 23.1332L62.3871 16.2793C62.5161 16.8612 62.5806 17.5078 62.5806 18.1544C62.5806 23.0039 58.6451 26.8834 53.8709 26.8834C52.5806 26.8834 51.3548 26.6248 50.258 26.1075C49.8064 25.9135 49.2258 25.9782 48.8387 26.3661L26.3871 48.8028C26 49.1908 25.9355 49.7081 26.129 50.2253C26.6451 51.3892 26.9032 52.5531 26.9032 53.8463C26.9677 58.6957 23.0322 62.5752 18.1935 62.5752ZM64.129 56.4973C64.3871 56.7559 64.5161 57.0792 64.5161 57.4025C64.5161 57.7258 64.3871 58.0491 64.129 58.3077L58.9032 63.5451C58.6451 63.8038 58.3225 63.9331 58 63.9331C57.6774 63.9331 57.3548 63.8038 57.0967 63.5451L57.0322 63.4805L38.9677 45.3113C38.4516 44.794 38.4516 44.0181 38.9677 43.5655C39.4838 43.0482 40.258 43.0482 40.7096 43.5655L58 60.8941L61.4838 57.4025L44.1935 40.0739C43.6774 39.5566 43.6774 38.7807 44.1935 38.3281C44.7096 37.8108 45.4838 37.8108 45.9355 38.3281L64.129 56.4973ZM14.1935 18.7364C14.4516 18.995 14.7742 19.1243 15.0967 19.1243C15.4193 19.1243 15.7419 18.995 16 18.7364L16.8387 17.8958L29.3548 30.4397C29.6129 30.6983 29.9355 30.8276 30.258 30.8276C30.5806 30.8276 30.9032 30.6983 31.1613 30.4397C31.6774 29.9224 31.6774 29.1465 31.1613 28.6939L18.5806 16.0853L19.2903 15.3741C19.5484 15.1154 19.6774 14.7921 19.6774 14.4688C19.6774 14.1456 19.5484 13.8223 19.2903 13.5636L14.129 8.39089C13.6129 7.87362 12.8387 7.87362 12.3871 8.39089L9.03223 11.7532C8.5161 12.2704 8.5161 13.0463 9.03223 13.499L14.1935 18.7364ZM13.2258 11.1066L16.6451 14.5335L15.9355 15.2448L15.0967 16.0853L11.6774 12.6584L13.2258 11.1066Z" fill="#5469D4"></path></svg>