<svg xmlns="http://www.w3.org/2000/svg" width="72" height="72" viewBox="0 0 72 72" fill="none"><path fill-rule="evenodd" clip-rule="evenodd" d="M24.3871 47.6134C30.8009 47.6134 36 42.4141 36 36.0005C36 29.5868 30.8009 24.3876 24.3871 24.3876C17.9734 24.3876 12.7742 29.5868 12.7742 36.0005C12.7742 42.4141 17.9734 47.6134 24.3871 47.6134ZM24.3871 45.2908C29.5179 45.2908 33.6774 41.1314 33.6774 36.0005C33.6774 30.8696 29.5179 26.7102 24.3871 26.7102C19.2563 26.7102 15.0968 30.8696 15.0968 36.0005C15.0968 41.1314 19.2563 45.2908 24.3871 45.2908Z" fill="#5469D4"></path><path fill-rule="evenodd" clip-rule="evenodd" d="M45.871 56.9037V54.5811H66.1936V56.9037H68.5161V47.6134H45.871V43.5489H48.1936C49.4762 43.5489 50.5161 42.509 50.5161 41.2263V30.7747C50.5161 29.4919 49.4762 28.4521 48.1936 28.4521H45.871V24.9682C45.871 19.1959 41.1915 14.5166 35.4194 14.5166H13.9355C8.16335 14.5166 3.48389 19.1959 3.48389 24.9682V46.4521C3.48389 52.2244 8.16335 56.9037 13.9355 56.9037H45.871ZM35.4194 16.8392H13.9355C9.44599 16.8392 5.80647 20.4787 5.80647 24.9682V46.4521C5.80647 50.9416 9.44599 54.5811 13.9355 54.5811H43.5484V24.9682C43.5484 20.4787 39.9089 16.8392 35.4194 16.8392ZM66.1936 49.936H45.871V52.2585H66.1936V49.936ZM45.871 41.2263H48.1936V30.7747H45.871V41.2263Z" fill="#5469D4"></path></svg>