<svg xmlns="http://www.w3.org/2000/svg" width="24" height="24" viewBox="0 0 24 24" fill="none"><rect x="0.5" y="0.5" width="23" height="23" rx="11.5" stroke="black" stroke-opacity="0.12"></rect><path d="M11.532 15.1193C13.2237 15.1193 14.4808 14.0582 14.4808 12.6307C14.4808 11.5227 13.8246 10.7173 12.7251 10.5341V10.4659C13.6072 10.1974 14.157 9.47301 14.157 8.48864C14.157 7.25284 13.1811 6.15341 11.5661 6.15341C10.0575 6.15341 8.80469 7.08239 8.75355 8.45455H9.77628C9.81463 7.58523 10.6413 7.07386 11.549 7.07386C12.5121 7.07386 13.1342 7.65767 13.1342 8.53977C13.1342 9.46023 12.4141 10.0568 11.3786 10.0568H10.6797V10.9943H11.3786C12.7038 10.9943 13.4411 11.6676 13.4411 12.6307C13.4411 13.5554 12.6357 14.1818 11.5149 14.1818C10.505 14.1818 9.70384 13.6619 9.63991 12.8182H8.56605C8.62997 14.1903 9.8402 15.1193 11.532 15.1193Z" fill="black" fill-opacity="0.38"></path></svg>