<svg xmlns="http://www.w3.org/2000/svg" width="24" height="25" viewBox="0 0 24 25" fill="none"><path d="M17 18.9707C15.89 18.9707 15 19.8607 15 20.9707C15 21.5011 15.2107 22.0098 15.5858 22.3849C15.9609 22.76 16.4696 22.9707 17 22.9707C17.5304 22.9707 18.0391 22.76 18.4142 22.3849C18.7893 22.0098 19 21.5011 19 20.9707C19 19.8607 18.1 18.9707 17 18.9707ZM1 2.9707V4.9707H3L6.6 12.5607L5.24 15.0107C5.09 15.2907 5 15.6207 5 15.9707C5 16.5011 5.21071 17.0098 5.58579 17.3849C5.96086 17.76 6.46957 17.9707 7 17.9707H19V15.9707H7.42C7.3537 15.9707 7.29011 15.9444 7.24322 15.8975C7.19634 15.8506 7.17 15.787 7.17 15.7207C7.17 15.6707 7.18 15.6307 7.2 15.6007L8.1 13.9707H15.55C16.3 13.9707 16.96 13.5507 17.3 12.9407L20.88 6.4707C20.95 6.3107 21 6.1407 21 5.9707C21 5.70549 20.8946 5.45113 20.7071 5.2636C20.5196 5.07606 20.2652 4.9707 20 4.9707H5.21L4.27 2.9707H1ZM7 18.9707C5.89 18.9707 5 19.8607 5 20.9707C5 21.5011 5.21071 22.0098 5.58579 22.3849C5.96086 22.76 6.46957 22.9707 7 22.9707C7.53043 22.9707 8.03914 22.76 8.41421 22.3849C8.78929 22.0098 9 21.5011 9 20.9707C9 19.8607 8.1 18.9707 7 18.9707Z" fill="black" fill-opacity="0.54"></path></svg>