<svg xmlns="http://www.w3.org/2000/svg" width="24" height="25" viewBox="0 0 24 25" fill="none"><path d="M12 20.1707C9.5 20.1707 7.29 18.8907 6 16.9707C6.03 14.9707 10 13.8707 12 13.8707C14 13.8707 17.97 14.9707 18 16.9707C16.71 18.8907 14.5 20.1707 12 20.1707ZM12 5.9707C12.7956 5.9707 13.5587 6.28677 14.1213 6.84938C14.6839 7.41199 15 8.17505 15 8.9707C15 9.76635 14.6839 10.5294 14.1213 11.092C13.5587 11.6546 12.7956 11.9707 12 11.9707C11.2044 11.9707 10.4413 11.6546 9.87868 11.092C9.31607 10.5294 9 9.76635 9 8.9707C9 8.17505 9.31607 7.41199 9.87868 6.84938C10.4413 6.28677 11.2044 5.9707 12 5.9707ZM12 2.9707C10.6868 2.9707 9.38642 3.22936 8.17317 3.73191C6.95991 4.23445 5.85752 4.97105 4.92893 5.89964C3.05357 7.775 2 10.3185 2 12.9707C2 15.6229 3.05357 18.1664 4.92893 20.0418C5.85752 20.9704 6.95991 21.707 8.17317 22.2095C9.38642 22.712 10.6868 22.9707 12 22.9707C14.6522 22.9707 17.1957 21.9171 19.0711 20.0418C20.9464 18.1664 22 15.6229 22 12.9707C22 7.4407 17.5 2.9707 12 2.9707Z" fill="black" fill-opacity="0.54"></path></svg>